# xmcd
#
# Track frame offsets:
#	150
#	14035
#	37965
#	51226
#	67901
#	96178
#	112565
#
# Disc length: 1822 seconds
#
# Revision: 0
# Processed by: cddbd v1.4PL0 Copyright (c) Steve Scherf et al.
# Submitted via: EasyCDDAExtractor 4.6.0.1
#
DISCID=4f071c07
DTITLE=Québec Blues - pat the white blues band
DYEAR=1999
DGENRE=blues
TTITLE0=Maximum Blues (Version Élestrique)
TTITLE1=Sans Les Femmes 
TTITLE2=Danser Toute La Nuit
TTITLE3=Blues Fin XXe
TTITLE4=I Left My Woman
TTITLE5=Maximum Blues (Version Acoustique)
TTITLE6=Québec Blues
EXTD=
EXTT0=
EXTT1=
EXTT2=
EXTT3=
EXTT4=
EXTT5=
EXTT6=
PLAYORDER=
